HIERARCHY
ROOT Hips
{
	OFFSET 305.588898 92.559578 -272.186401
	CHANNELS 6 Xposition Yposition Zposition Zrotation Yrotation Xrotation 
	JOINT LeftUpLeg
	{
		OFFSET 0.103462 1.857825 10.548491
		CHANNELS 3 Zrotation Yrotation Xrotation
		JOINT LeftLeg
		{
			OFFSET 43.500000 -0.000038 -0.000006
			CHANNELS 3 Zrotation Yrotation Xrotation
			JOINT LeftFoot
			{
				OFFSET 42.372196 0.000034 -0.000012
				CHANNELS 3 Zrotation Yrotation Xrotation
				JOINT LeftToe
				{
					OFFSET 17.299999 -0.000001 -0.000008
					CHANNELS 3 Zrotation Yrotation Xrotation
					End Site
					{
						OFFSET 0.000000 0.000000 0.000000
					}
				}
			}
		}
	}
	JOINT RightUpLeg
	{
		OFFSET 0.103456 1.857821 -10.548490
		CHANNELS 3 Zrotation Yrotation Xrotation
		JOINT RightLeg
		{
			OFFSET 43.500038 -0.000011 0.000011
			CHANNELS 3 Zrotation Yrotation Xrotation
			JOINT RightFoot
			{
				OFFSET 42.372265 0.000004 0.000029
				CHANNELS 3 Zrotation Yrotation Xrotation
				JOINT RightToe
				{
					OFFSET 17.299988 -0.000007 0.000004
					CHANNELS 3 Zrotation Yrotation Xrotation
					End Site
					{
						OFFSET 0.000000 0.000000 0.000000
					}
				}
			}
		}
	}
	JOINT Spine
	{
		OFFSET 6.901963 -2.603729 -0.000012
		CHANNELS 3 Zrotation Yrotation Xrotation
		JOINT Spine1
		{
			OFFSET 12.588106 0.000010 0.000003
			CHANNELS 3 Zrotation Yrotation Xrotation
			JOINT Spine2
			{
				OFFSET 12.343199 -0.000001 -0.000002
				CHANNELS 3 Zrotation Yrotation Xrotation
				JOINT Neck
				{
					OFFSET 25.832895 -0.000006 0.000023
					CHANNELS 3 Zrotation Yrotation Xrotation
					JOINT Head
					{
						OFFSET 11.766605 0.000011 -0.000027
						CHANNELS 3 Zrotation Yrotation Xrotation
						End Site
						{
							OFFSET 0.000000 0.000000 0.000000
						}
					}
				}
				JOINT LeftShoulder
				{
					OFFSET 19.745903 -1.480368 6.000127
					CHANNELS 3 Zrotation Yrotation Xrotation
					JOINT LeftArm
					{
						OFFSET 11.284108 0.000010 -0.000010
						CHANNELS 3 Zrotation Yrotation Xrotation
						JOINT LeftForeArm
						{
							OFFSET 33.000069 0.000000 0.000030
							CHANNELS 3 Zrotation Yrotation Xrotation
							JOINT LeftHand
							{
								OFFSET 25.199997 0.000019 0.000001
								CHANNELS 3 Zrotation Yrotation Xrotation
								End Site
								{
									OFFSET 0.000000 0.000000 0.000000
								}
							}
						}
					}
				}
				JOINT RightShoulder
				{
					OFFSET 19.746101 -1.480371 -6.000072
					CHANNELS 3 Zrotation Yrotation Xrotation
					JOINT RightArm
					{
						OFFSET 11.284140 -0.000007 -0.000004
						CHANNELS 3 Zrotation Yrotation Xrotation
						JOINT RightForeArm
						{
							OFFSET 33.000080 0.000016 -0.000002
							CHANNELS 3 Zrotation Yrotation Xrotation
							JOINT RightHand
							{
								OFFSET 25.199766 0.000146 0.000422
								CHANNELS 3 Zrotation Yrotation Xrotation
								End Site
								{
									OFFSET 0.000000 0.000000 0.000000
								}
							}
						}
					}
				}
			}
		}
	}
}
MOTION
Frames: 11
Frame Time: 0.033333
-151.717407 91.052391 281.793701 95.127856 -5.810134 -143.102053 167.724734 -2.263307 -179.377228 -37.828774 0.536640 -5.564730 72.668295 2.194913 -5.856314 21.454548 0.003098 -0.000000 -177.721754 4.617704 -178.637696 -14.725492 8.495879 -1.745455 77.070010 -0.556572 -5.602103 21.454558 -0.003106 -0.000018 8.570731 1.284153 0.951752 7.152010 2.507114 1.981335 6.833783 2.519168 1.966164 7.419696 1.282664 6.681269 -24.523943 3.445716 5.674524 -164.949792 -74.598896 -16.882896 7.152211 65.876498 35.547982 -23.892031 -13.171957 1.008621 15.911585 3.089283 46.681737 -168.667382 73.723600 13.035210 -24.432741 -54.099828 -10.874626 -34.353034 14.822142 -1.335945 7.542079 1.455634 -11.913055 
-152.637604 90.930893 282.746399 95.324647 -5.604961 -142.109011 169.298711 -2.347905 -177.647169 -42.101054 0.653453 -5.608816 73.714420 2.547365 -4.910181 21.454557 0.003087 -0.000001 -178.712528 4.104405 -179.629413 -15.124679 8.785236 -0.596101 76.838419 -1.299974 -5.341164 21.454560 -0.003101 -0.000016 8.550138 1.394603 1.013224 7.114562 2.724372 2.110651 6.796298 2.737200 2.094167 7.935987 2.949116 8.508794 -24.706389 1.734957 8.534823 -162.474395 -73.720602 -19.427700 13.017465 64.651784 40.298072 -23.521642 -13.504928 1.024515 20.639409 5.372209 59.852039 -166.387998 73.232414 15.375201 -22.255495 -54.279821 -13.102987 -33.089603 14.717770 -1.301300 7.923554 1.630958 -10.776700 
-153.533707 90.868408 283.688385 95.465124 -5.606019 -140.786004 171.496187 -2.432604 -176.261597 -45.269015 0.840462 -5.834226 74.968395 2.633903 -5.257235 21.454555 0.003091 -0.000000 -179.661542 3.897096 -178.586443 -15.992422 8.795959 -0.450690 76.696030 -1.405293 -5.334867 21.454560 -0.003114 -0.000018 8.524323 1.456506 1.028661 7.064635 2.847590 2.144757 6.746354 2.860619 2.127533 8.729742 3.842228 10.152745 -24.758915 1.150057 10.609627 -158.711207 -73.342708 -23.292999 18.119221 63.115989 46.008789 -24.763075 -13.717202 1.056598 22.114829 6.264933 68.754904 -165.437564 72.654177 16.354314 -19.725414 -54.229837 -15.452757 -31.447615 14.382645 -1.245158 8.665370 1.891955 -9.919053 
-154.411301 90.918266 284.617889 95.399834 -5.916668 -139.053950 174.210218 -2.533001 -175.948323 -47.086163 0.985291 -6.463182 75.180008 3.001923 -5.531476 21.454545 0.003098 0.000000 179.680530 3.908204 -177.876376 -16.391742 8.629523 0.170661 76.381247 -1.780995 -5.094785 21.454558 -0.003109 -0.000017 8.480438 1.435832 1.021989 6.976263 2.807552 2.129084 6.657975 2.820494 2.112089 9.595407 4.605398 11.478160 -24.570588 0.605948 12.303541 -155.437292 -73.263519 -26.652913 21.774477 61.678828 50.378960 -25.612661 -14.236290 1.103131 21.618925 7.349515 69.075923 -164.870221 72.134311 16.940788 -16.810940 -54.354922 -17.754442 -29.673774 13.875276 -1.177402 9.569038 2.071189 -9.627430 
-155.323898 90.944427 285.576691 95.214278 -6.128307 -136.697999 176.710258 -2.849501 -177.429818 -48.268718 1.838621 -7.735814 74.874405 3.996869 -5.128361 21.454558 0.003087 -0.000000 178.948839 3.877698 -176.401574 -16.809135 8.189013 0.720562 76.056171 -2.073878 -4.759630 21.454550 -0.003102 -0.000016 8.377514 1.413775 0.995834 6.769224 2.767002 2.073015 6.450927 2.779594 2.056271 10.300399 5.365225 12.512597 -24.288592 0.037621 13.689563 -153.795028 -73.438119 -28.332986 23.937317 60.164794 51.294130 -26.422991 -14.079739 1.106371 20.033377 8.666412 62.632056 -164.017075 71.555002 17.822807 -13.551479 -54.616686 -20.052126 -27.937663 13.369849 -1.112861 9.818872 1.977574 -9.971615 
-156.291504 90.974800 286.527100 94.902548 -6.384605 -133.781973 178.998098 -3.629897 -179.727672 -48.812620 2.483412 -9.294404 74.292248 5.026443 -5.280951 21.454555 0.003097 -0.000001 178.288701 3.965813 -175.002301 -17.036531 7.679031 1.640526 75.663073 -2.561085 -4.195363 21.454555 -0.003104 -0.000017 8.260608 1.352447 0.916709 6.532210 2.651120 1.908561 6.213934 2.662732 1.892515 10.451422 6.138424 13.278068 -23.730181 -0.282004 14.682402 -152.619211 -73.648700 -29.532700 24.876792 58.990507 49.979315 -27.407652 -14.061621 1.121955 18.963921 9.613438 53.171220 -162.982712 70.867611 18.894199 -10.400390 -54.936458 -22.423298 -26.396668 12.983042 -1.061442 10.156542 1.314609 -11.034769 
-157.301102 90.975723 287.471710 94.571127 -6.626831 -130.564940 -178.771199 -4.989589 176.752018 -48.500067 2.943902 -10.785215 73.346540 5.917560 -5.723182 21.454553 0.003091 0.000002 177.672604 4.115805 -174.182350 -17.132575 7.290572 3.062682 75.225135 -3.345232 -3.432766 21.454558 -0.003106 -0.000017 8.144610 1.279580 0.830316 6.296854 2.512200 1.729193 5.978588 2.522735 1.713981 10.325585 6.752990 13.761885 -23.183206 -0.452016 15.305001 -151.080301 -73.563419 -31.112014 23.585306 58.362566 47.521523 -28.016591 -14.534643 1.162982 17.995486 10.918526 43.322930 -161.800816 70.304291 20.118380 -7.349255 -55.427245 -24.921205 -25.404460 12.705020 -1.027464 10.348713 0.123808 -12.251469 
-158.337402 90.873779 288.403198 94.430548 -6.767123 -127.098032 -176.762796 -6.668796 172.427757 -47.901862 3.463169 -12.135783 72.160252 6.945189 -5.367758 21.454551 0.003092 0.000004 177.121886 4.198396 -173.756078 -17.265480 7.123564 4.846129 74.848662 -4.348311 -2.554534 21.454558 -0.003109 -0.000017 8.039564 1.247868 0.737757 6.084171 2.455334 1.540162 5.765885 2.464721 1.525306 10.390738 7.253652 13.977433 -23.148478 -0.791627 15.713504 -149.853476 -73.494686 -32.371002 21.529982 58.255981 44.463049 -29.283859 -14.979337 1.214707 16.209390 10.062495 37.813204 -160.680514 69.843411 21.279820 -4.316147 -55.948999 -27.553272 -25.000144 12.740712 -1.023370 10.724988 -1.507908 -13.662455 
-159.423798 90.778343 289.341187 94.247759 -6.801543 -122.843029 -175.627905 -8.601591 168.392809 -47.460078 3.723359 -13.129241 70.109064 7.450159 -5.815495 21.454546 0.003090 0.000003 176.762987 4.383109 -172.574811 -17.112511 6.906465 6.642376 74.400547 -5.326491 -1.555848 21.454560 -0.003102 -0.000017 7.911892 1.258679 0.545383 5.824845 2.488410 1.153394 5.506498 2.495464 1.138340 10.207645 7.652505 13.880828 -22.944030 -0.868328 15.678838 -150.450899 -73.415490 -31.761315 19.051633 58.368468 41.267996 -31.531722 -15.268123 1.277376 14.523540 7.092896 35.017369 -159.282402 69.177911 22.732707 -1.898989 -56.055417 -29.801311 -24.958037 12.655072 -1.017227 10.980178 -2.478923 -14.892584 
-160.604095 90.664131 290.287201 94.056875 -6.928263 -118.234987 -174.925161 -10.410995 164.945285 -46.847492 3.503625 -13.281682 68.646796 7.553733 -5.707501 21.454558 0.003091 -0.000000 176.576728 4.802199 -171.521131 -16.887298 6.821923 8.690670 73.908043 -6.437975 -0.402841 21.454551 -0.003101 -0.000016 7.809427 1.262030 0.327133 5.615176 2.506734 0.714956 5.296763 2.511137 0.699800 9.888999 8.140698 13.484451 -22.514192 -0.967340 15.346658 -152.042770 -73.578718 -30.125328 16.325788 58.943460 38.556220 -34.146619 -15.837062 1.369967 12.007348 3.350957 35.916089 -157.998613 68.436016 24.071895 -0.269904 -55.978694 -31.837127 -25.053129 12.605328 -1.016592 11.015067 -2.932720 -14.882023 
-161.941193 90.533783 291.225006 93.799650 -7.064947 -113.488033 -174.581684 -11.579890 162.603868 -45.720200 2.685710 -12.577366 68.683283 7.384716 -4.772890 21.454545 0.003092 0.000004 176.427802 5.514209 -170.352513 -16.709050 6.777852 10.710955 73.331991 -7.494186 0.870975 21.454558 -0.003110 -0.000017 7.715797 1.244476 0.108167 5.423000 2.482510 0.274249 5.104565 2.484239 0.259254 9.550654 8.621804 12.945445 -22.110769 -0.943248 14.818553 -152.906598 -74.135829 -29.225505 13.322039 60.245253 36.591140 -37.052212 -16.472710 1.479007 10.490765 -0.726245 38.089151 -157.241610 67.600704 24.870696 0.529080 -55.631799 -33.486590 -25.006431 12.664981 -1.018613 11.044574 -3.030262 -14.589340 
